<svg width="310" height="101" viewBox="0 0 310 101" fill="none" xmlns="http://www.w3.org/2000/svg">
<path fill-rule="evenodd" clip-rule="evenodd" d="M84.435 44.0633C87.7897 38.4443 92.4956 33.9108 98.0028 30.7844C103.519 27.6534 109.823 25.9248 116.36 25.9248C126.629 25.9248 135.924 30.0856 142.652 36.8182C149.38 43.5461 153.546 52.846 153.546 63.1104C153.546 73.3747 149.385 82.6746 142.652 89.4025C135.924 96.1305 126.625 100.296 116.36 100.296C106.096 100.296 96.796 96.1352 90.0681 89.4025C72.7263 72.0608 85.5766 56.8064 70.1917 41.4215C64.6425 35.8723 56.9734 32.4385 48.5029 32.4385C40.0323 32.4385 32.3632 35.8723 26.814 41.4215C21.2648 46.9707 17.831 54.6398 17.831 63.1104C17.831 71.5809 21.2648 79.25 26.814 84.7992C32.3632 90.3484 40.0323 93.7822 48.5029 93.7822C53.9169 93.7822 59.1213 92.3658 63.6548 89.7893C66.6973 88.0607 69.4462 85.8149 71.7572 83.1265C73.784 80.7736 77.2178 80.2424 79.8829 81.8359C80.1811 82.013 80.279 82.4043 80.0973 82.7025C76.7706 88.0747 72.1859 92.4171 66.8603 95.4409C61.3438 98.572 55.0398 100.301 48.5029 100.301C38.2339 100.301 28.9386 96.1398 22.2107 89.4072C15.4827 82.6792 11.3173 73.3794 11.3173 63.115C11.3173 52.8507 15.478 43.5508 22.2107 36.8228C28.9386 30.0949 38.2385 25.9295 48.5029 25.9295C58.7672 25.9295 68.0671 30.0902 74.795 36.8228C92.1368 54.1646 79.2866 69.4237 94.6714 84.8039C100.221 90.353 107.89 93.7869 116.36 93.7869C124.831 93.7869 132.5 90.353 138.049 84.8039C143.598 79.2547 147.032 71.5855 147.032 63.115C147.032 54.6445 143.598 46.9754 138.049 41.4262C132.5 35.877 124.831 32.4431 116.36 32.4431C110.946 32.4431 105.742 33.8595 101.208 36.4361C98.1659 38.1647 95.4169 40.4105 93.1013 43.1035C91.0745 45.4564 87.6406 45.9876 84.9755 44.3941L84.4304 44.068L84.435 44.0633ZM109.805 64.3823C110.406 59.6019 106.389 55.5857 101.609 56.1867C98.3522 56.5967 95.7244 59.2245 95.3144 62.4814C94.7134 67.2617 98.7296 71.278 103.51 70.677C106.767 70.267 109.395 67.6392 109.805 64.3823ZM137.457 64.3823C138.058 59.6019 134.042 55.5857 129.262 56.1867C126.005 56.5967 123.377 59.2245 122.967 62.4814C122.366 67.2617 126.382 71.2827 131.163 70.677C134.42 70.267 137.047 67.6345 137.457 64.3777V64.3823ZM117.334 70.0107C112.554 69.4097 108.537 73.4259 109.138 78.2063C109.548 81.4632 112.176 84.091 115.433 84.5057C120.213 85.1067 124.234 81.0904 123.629 76.31C123.219 73.0532 120.591 70.4254 117.334 70.0154V70.0107ZM117.334 42.358C112.554 41.757 108.533 45.7733 109.138 50.5537C109.548 53.8105 112.176 56.4383 115.433 56.8483C120.213 57.4494 124.23 53.4331 123.629 48.6527C123.219 45.3959 120.591 42.768 117.334 42.3534V42.358ZM34.1803 70.5559H41.062V77.4376C41.062 81.356 44.2676 84.5616 48.186 84.5616C52.1045 84.5616 55.31 81.356 55.31 77.4376V70.5559H62.1917C66.1102 70.5559 69.3158 67.3503 69.3158 63.4319C69.3158 59.5134 66.1102 56.3078 62.1917 56.3078H55.31V49.4261C55.31 45.5077 52.1045 42.3021 48.186 42.3021C44.2676 42.3021 41.062 45.5077 41.062 49.4261V56.3078H34.1803C30.2619 56.3078 27.0563 59.5134 27.0563 63.4319C27.0563 67.3503 30.2619 70.5559 34.1803 70.5559ZM2.40418 9.57084H4.72449V11.8912C4.72449 13.2144 5.80543 14.2953 7.12866 14.2953C8.45189 14.2953 9.53284 13.2144 9.53284 11.8912V9.57084H11.8531C13.1764 9.57084 14.2573 8.4899 14.2573 7.16667C14.2573 5.84344 13.1764 4.76249 11.8531 4.76249H9.53284V2.44684C9.53284 1.12361 8.45189 0.0426636 7.12866 0.0426636C5.80543 0.0426636 4.72449 1.12361 4.72449 2.44684V4.76715H2.40418C1.08095 4.76715 0 5.8481 0 7.17133C0 8.49455 1.08095 9.5755 2.40418 9.5755V9.57084ZM2.40418 34.8054H4.72449V37.1257C4.72449 38.4489 5.80543 39.5299 7.12866 39.5299C8.45189 39.5299 9.53284 38.4489 9.53284 37.1257V34.8054H11.8531C13.1764 34.8054 14.2573 33.7244 14.2573 32.4012C14.2573 31.078 13.1764 29.997 11.8531 29.997H9.53284V27.6767C9.53284 26.3535 8.45189 25.2725 7.12866 25.2725C5.80543 25.2725 4.72449 26.3535 4.72449 27.6767V29.997H2.40418C1.08095 29.997 0 31.078 0 32.4012C0 33.7244 1.08095 34.8054 2.40418 34.8054ZM27.3824 20.0728H29.7028V22.3931C29.7028 23.7163 30.7837 24.7973 32.1069 24.7973C33.4302 24.7973 34.5111 23.7163 34.5111 22.3931V20.0728H36.8314C38.1547 20.0728 39.2356 18.9919 39.2356 17.6686C39.2356 16.3454 38.1547 15.2645 36.8314 15.2645H34.5111V12.9441C34.5111 11.6209 33.4302 10.54 32.1069 10.54C30.7837 10.54 29.7028 11.6209 29.7028 12.9441V15.2645H27.3824C26.0592 15.2645 24.9783 16.3454 24.9783 17.6686C24.9783 18.9919 26.0592 20.0728 27.3824 20.0728Z" fill="url(#paint0_linear_11_19)"/>
<path d="M168.92 26.504C168.708 26.5152 168.546 26.4593 168.434 26.3363C168.311 26.2133 168.249 26.0623 168.249 25.8834C168.249 25.7492 168.294 25.6262 168.384 25.5144C168.462 25.4026 168.591 25.3411 168.769 25.3299L169.289 25.2963C169.86 25.2516 170.296 25.0559 170.598 24.7093C170.9 24.3514 171.051 23.865 171.051 23.25V15.1652C171.051 14.9304 171.107 14.7571 171.218 14.6453C171.341 14.5223 171.515 14.4608 171.738 14.4608C171.962 14.4608 172.13 14.5223 172.242 14.6453C172.365 14.7571 172.426 14.9304 172.426 15.1652V23.2668C172.426 23.9041 172.314 24.4577 172.091 24.9273C171.867 25.3858 171.531 25.7436 171.084 26.0008C170.648 26.258 170.111 26.409 169.474 26.4537L168.92 26.504Z" fill="white"/>
<path d="M181.823 26.5543C181.029 26.5543 180.341 26.381 179.76 26.0344C179.178 25.6877 178.725 25.2013 178.401 24.5751C178.088 23.9377 177.931 23.1885 177.931 22.3275C177.931 21.6789 178.021 21.0974 178.2 20.583C178.379 20.0575 178.641 19.6102 178.988 19.2412C179.335 18.8722 179.743 18.5926 180.213 18.4025C180.693 18.2012 181.23 18.1006 181.823 18.1006C182.617 18.1006 183.304 18.2739 183.886 18.6206C184.467 18.9672 184.915 19.4592 185.228 20.0966C185.552 20.7228 185.714 21.4664 185.714 22.3275C185.714 22.976 185.625 23.5575 185.446 24.0719C185.267 24.5863 185.004 25.0336 184.657 25.4137C184.311 25.7828 183.897 26.0679 183.416 26.2692C182.947 26.4593 182.415 26.5543 181.823 26.5543ZM181.823 25.4641C182.326 25.4641 182.768 25.3411 183.148 25.0951C183.528 24.849 183.819 24.4912 184.02 24.0216C184.233 23.5519 184.339 22.9872 184.339 22.3275C184.339 21.3099 184.11 20.5327 183.651 19.996C183.204 19.4592 182.594 19.1908 181.823 19.1908C181.308 19.1908 180.861 19.3138 180.481 19.5599C180.112 19.7947 179.821 20.1469 179.609 20.6166C179.407 21.075 179.307 21.6453 179.307 22.3275C179.307 23.3339 179.536 24.111 179.994 24.6589C180.453 25.1957 181.062 25.4641 181.823 25.4641Z" fill="white"/>
<path d="M191.713 26.5208C191.49 26.5208 191.316 26.4593 191.193 26.3363C191.082 26.2133 191.026 26.04 191.026 25.8163V18.8218C191.026 18.5982 191.082 18.4305 191.193 18.3186C191.305 18.1956 191.467 18.1341 191.68 18.1341C191.892 18.1341 192.054 18.1956 192.166 18.3186C192.289 18.4305 192.351 18.5982 192.351 18.8218V20.1805H192.183C192.362 19.5207 192.703 19.0119 193.206 18.6541C193.709 18.2963 194.33 18.1062 195.068 18.0838C195.236 18.0726 195.37 18.1118 195.471 18.2012C195.571 18.2795 195.627 18.4193 195.638 18.6206C195.65 18.8107 195.605 18.9616 195.504 19.0734C195.404 19.1853 195.247 19.2523 195.035 19.2747L194.766 19.3083C194.006 19.3754 193.419 19.6214 193.005 20.0463C192.602 20.46 192.401 21.0303 192.401 21.7572V25.8163C192.401 26.04 192.34 26.2133 192.217 26.3363C192.105 26.4593 191.937 26.5208 191.713 26.5208Z" fill="white"/>
<path d="M200.979 26.5208C200.755 26.5208 200.588 26.4593 200.476 26.3363C200.364 26.2133 200.308 26.04 200.308 25.8163V18.8218C200.308 18.5982 200.364 18.4305 200.476 18.3186C200.588 18.1956 200.75 18.1341 200.962 18.1341C201.175 18.1341 201.337 18.1956 201.449 18.3186C201.572 18.4305 201.633 18.5982 201.633 18.8218V20.2643L201.449 20.0631C201.683 19.4145 202.064 18.9281 202.589 18.6038C203.126 18.2683 203.741 18.1006 204.434 18.1006C205.083 18.1006 205.62 18.218 206.044 18.4528C206.481 18.6876 206.805 19.0455 207.017 19.5263C207.23 19.996 207.336 20.5942 207.336 21.3211V25.8163C207.336 26.04 207.275 26.2133 207.152 26.3363C207.04 26.4593 206.878 26.5208 206.665 26.5208C206.441 26.5208 206.268 26.4593 206.145 26.3363C206.033 26.2133 205.977 26.04 205.977 25.8163V21.4049C205.977 20.6445 205.826 20.091 205.525 19.7444C205.234 19.3865 204.764 19.2076 204.116 19.2076C203.366 19.2076 202.768 19.4424 202.321 19.9121C201.885 20.3706 201.667 20.9856 201.667 21.7572V25.8163C201.667 26.286 201.437 26.5208 200.979 26.5208Z" fill="white"/>
<path d="M215.678 26.5543C215.119 26.5543 214.616 26.4481 214.169 26.2356C213.733 26.012 213.386 25.7101 213.129 25.3299C212.872 24.9497 212.743 24.5248 212.743 24.0551C212.743 23.4513 212.894 22.976 213.196 22.6294C213.509 22.2827 214.018 22.0367 214.722 21.8914C215.438 21.746 216.411 21.6733 217.641 21.6733H218.396V22.5623H217.658C216.752 22.5623 216.036 22.607 215.511 22.6965C214.996 22.7747 214.633 22.9145 214.42 23.1158C214.219 23.3171 214.118 23.6022 214.118 23.9712C214.118 24.4297 214.275 24.8043 214.588 25.0951C214.912 25.3858 215.349 25.5312 215.896 25.5312C216.344 25.5312 216.735 25.4249 217.071 25.2125C217.417 25 217.686 24.7093 217.876 24.3403C218.077 23.9712 218.178 23.5463 218.178 23.0655V21.1533C218.178 20.46 218.038 19.9624 217.758 19.6605C217.479 19.3474 217.02 19.1908 216.383 19.1908C215.992 19.1908 215.6 19.2412 215.209 19.3418C214.817 19.4424 214.404 19.6046 213.968 19.8282C213.811 19.9065 213.677 19.9345 213.565 19.9121C213.453 19.8786 213.364 19.817 213.297 19.7276C213.229 19.6381 213.19 19.5375 213.179 19.4257C213.168 19.3027 213.19 19.1853 213.246 19.0734C213.313 18.9616 213.414 18.8722 213.548 18.8051C214.04 18.5591 214.527 18.3801 215.007 18.2683C215.488 18.1565 215.947 18.1006 216.383 18.1006C217.087 18.1006 217.669 18.218 218.127 18.4528C218.586 18.6765 218.927 19.0231 219.15 19.4928C219.374 19.9512 219.486 20.5439 219.486 21.2707V25.8163C219.486 26.04 219.43 26.2133 219.318 26.3363C219.218 26.4593 219.067 26.5208 218.865 26.5208C218.653 26.5208 218.491 26.4593 218.379 26.3363C218.267 26.2133 218.211 26.04 218.211 25.8163V24.508H218.362C218.273 24.9329 218.099 25.2963 217.842 25.5983C217.596 25.9002 217.289 26.135 216.92 26.3027C216.551 26.4705 216.137 26.5543 215.678 26.5543Z" fill="white"/>
<path d="M228.38 26.5543C227.654 26.5543 227.016 26.381 226.468 26.0344C225.931 25.6877 225.512 25.2013 225.21 24.5751C224.919 23.9377 224.774 23.1885 224.774 22.3275C224.774 21.4552 224.919 20.706 225.21 20.0798C225.512 19.4424 225.931 18.956 226.468 18.6206C227.016 18.2739 227.654 18.1006 228.38 18.1006C229.118 18.1006 229.75 18.2851 230.276 18.6541C230.801 19.0231 231.154 19.5207 231.332 20.1469H231.148V15.1485C231.148 14.9248 231.204 14.7571 231.316 14.6453C231.439 14.5223 231.612 14.4608 231.836 14.4608C232.048 14.4608 232.21 14.5223 232.322 14.6453C232.445 14.7571 232.507 14.9248 232.507 15.1485V25.8163C232.507 26.04 232.451 26.2133 232.339 26.3363C232.227 26.4593 232.059 26.5208 231.836 26.5208C231.623 26.5208 231.456 26.4593 231.332 26.3363C231.221 26.2133 231.165 26.04 231.165 25.8163V24.2228L231.349 24.4577C231.17 25.0951 230.813 25.6038 230.276 25.984C229.75 26.3642 229.118 26.5543 228.38 26.5543ZM228.666 25.4641C229.169 25.4641 229.61 25.3411 229.991 25.0951C230.371 24.849 230.662 24.4912 230.863 24.0216C231.075 23.5519 231.182 22.9872 231.182 22.3275C231.182 21.3099 230.952 20.5327 230.494 19.996C230.047 19.4592 229.437 19.1908 228.666 19.1908C228.151 19.1908 227.704 19.3138 227.324 19.5599C226.955 19.7947 226.664 20.1469 226.451 20.6166C226.25 21.075 226.15 21.6453 226.15 22.3275C226.15 23.3339 226.379 24.111 226.837 24.6589C227.296 25.1957 227.905 25.4641 228.666 25.4641Z" fill="white"/>
<path d="M240.893 26.5543C240.334 26.5543 239.831 26.4481 239.384 26.2356C238.948 26.012 238.601 25.7101 238.344 25.3299C238.087 24.9497 237.958 24.5248 237.958 24.0551C237.958 23.4513 238.109 22.976 238.411 22.6294C238.724 22.2827 239.233 22.0367 239.937 21.8914C240.653 21.746 241.626 21.6733 242.856 21.6733H243.611V22.5623H242.873C241.967 22.5623 241.251 22.607 240.726 22.6965C240.211 22.7747 239.848 22.9145 239.635 23.1158C239.434 23.3171 239.334 23.6022 239.334 23.9712C239.334 24.4297 239.49 24.8043 239.803 25.0951C240.127 25.3858 240.564 25.5312 241.111 25.5312C241.559 25.5312 241.95 25.4249 242.286 25.2125C242.632 25 242.901 24.7093 243.091 24.3403C243.292 23.9712 243.393 23.5463 243.393 23.0655V21.1533C243.393 20.46 243.253 19.9624 242.973 19.6605C242.694 19.3474 242.235 19.1908 241.598 19.1908C241.207 19.1908 240.815 19.2412 240.424 19.3418C240.032 19.4424 239.619 19.6046 239.183 19.8282C239.026 19.9065 238.892 19.9345 238.78 19.9121C238.668 19.8786 238.579 19.817 238.512 19.7276C238.445 19.6381 238.405 19.5375 238.394 19.4257C238.383 19.3027 238.405 19.1853 238.461 19.0734C238.528 18.9616 238.629 18.8722 238.763 18.8051C239.255 18.5591 239.742 18.3801 240.222 18.2683C240.703 18.1565 241.162 18.1006 241.598 18.1006C242.302 18.1006 242.884 18.218 243.342 18.4528C243.801 18.6765 244.142 19.0231 244.366 19.4928C244.589 19.9512 244.701 20.5439 244.701 21.2707V25.8163C244.701 26.04 244.645 26.2133 244.533 26.3363C244.433 26.4593 244.282 26.5208 244.08 26.5208C243.868 26.5208 243.706 26.4593 243.594 26.3363C243.482 26.2133 243.426 26.04 243.426 25.8163V24.508H243.577C243.488 24.9329 243.314 25.2963 243.057 25.5983C242.811 25.9002 242.504 26.135 242.135 26.3027C241.766 26.4705 241.352 26.5543 240.893 26.5543Z" fill="white"/>
<path d="M261.191 26.5543C260.464 26.5543 259.826 26.381 259.278 26.0344C258.742 25.6877 258.322 25.2013 258.02 24.5751C257.73 23.9377 257.584 23.1885 257.584 22.3275C257.584 21.4552 257.73 20.706 258.02 20.0798C258.322 19.4424 258.742 18.956 259.278 18.6206C259.826 18.2739 260.464 18.1006 261.191 18.1006C261.929 18.1006 262.56 18.2851 263.086 18.6541C263.612 19.0231 263.964 19.5207 264.143 20.1469H263.958V15.1485C263.958 14.9248 264.014 14.7571 264.126 14.6453C264.249 14.5223 264.422 14.4608 264.646 14.4608C264.858 14.4608 265.02 14.5223 265.132 14.6453C265.255 14.7571 265.317 14.9248 265.317 15.1485V25.8163C265.317 26.04 265.261 26.2133 265.149 26.3363C265.037 26.4593 264.87 26.5208 264.646 26.5208C264.433 26.5208 264.266 26.4593 264.143 26.3363C264.031 26.2133 263.975 26.04 263.975 25.8163V24.2228L264.159 24.4577C263.981 25.0951 263.623 25.6038 263.086 25.984C262.56 26.3642 261.929 26.5543 261.191 26.5543ZM261.476 25.4641C261.979 25.4641 262.421 25.3411 262.801 25.0951C263.181 24.849 263.472 24.4912 263.673 24.0216C263.885 23.5519 263.992 22.9872 263.992 22.3275C263.992 21.3099 263.762 20.5327 263.304 19.996C262.857 19.4592 262.247 19.1908 261.476 19.1908C260.961 19.1908 260.514 19.3138 260.134 19.5599C259.765 19.7947 259.474 20.1469 259.262 20.6166C259.06 21.075 258.96 21.6453 258.96 22.3275C258.96 23.3339 259.189 24.111 259.647 24.6589C260.106 25.1957 260.715 25.4641 261.476 25.4641Z" fill="white"/>
<path d="M274.526 26.5543C273.732 26.5543 273.044 26.381 272.462 26.0344C271.881 25.6877 271.428 25.2013 271.104 24.5751C270.791 23.9377 270.634 23.1885 270.634 22.3275C270.634 21.6789 270.724 21.0974 270.902 20.583C271.081 20.0575 271.344 19.6102 271.691 19.2412C272.037 18.8722 272.446 18.5926 272.915 18.4025C273.396 18.2012 273.933 18.1006 274.526 18.1006C275.319 18.1006 276.007 18.2739 276.589 18.6206C277.17 18.9672 277.617 19.4592 277.93 20.0966C278.255 20.7228 278.417 21.4664 278.417 22.3275C278.417 22.976 278.327 23.5575 278.149 24.0719C277.97 24.5863 277.707 25.0336 277.36 25.4137C277.014 25.7828 276.6 26.0679 276.119 26.2692C275.649 26.4593 275.118 26.5543 274.526 26.5543ZM274.526 25.4641C275.029 25.4641 275.47 25.3411 275.851 25.0951C276.231 24.849 276.522 24.4912 276.723 24.0216C276.935 23.5519 277.042 22.9872 277.042 22.3275C277.042 21.3099 276.812 20.5327 276.354 19.996C275.907 19.4592 275.297 19.1908 274.526 19.1908C274.011 19.1908 273.564 19.3138 273.184 19.5599C272.815 19.7947 272.524 20.1469 272.311 20.6166C272.11 21.075 272.01 21.6453 272.01 22.3275C272.01 23.3339 272.239 24.111 272.697 24.6589C273.156 25.1957 273.765 25.4641 274.526 25.4641Z" fill="white"/>
<path d="M178.007 61.003C176.833 61.003 175.691 60.8942 174.582 60.6768C173.495 60.4594 172.506 60.1224 171.614 59.6658C171.201 59.4483 170.919 59.1874 170.766 58.883C170.636 58.5786 170.592 58.2633 170.636 57.9372C170.701 57.6328 170.832 57.361 171.027 57.1218C171.245 56.8826 171.506 56.7196 171.81 56.6326C172.114 56.5456 172.43 56.5891 172.756 56.763C173.713 57.2414 174.615 57.5458 175.463 57.6763C176.333 57.8285 177.072 57.9046 177.681 57.9046C179.138 57.9046 180.225 57.5458 180.942 56.8283C181.681 56.1325 182.051 55.0888 182.051 53.6973V50.7619H182.345C182.019 51.8708 181.334 52.7623 180.29 53.4363C179.268 54.0886 178.105 54.4148 176.8 54.4148C175.365 54.4148 174.115 54.0886 173.049 53.4363C171.984 52.7623 171.158 51.8273 170.571 50.6315C169.984 49.4356 169.69 48.044 169.69 46.4568C169.69 45.2609 169.853 44.1846 170.179 43.2279C170.527 42.2495 171.006 41.4123 171.614 40.7166C172.245 40.0208 172.995 39.4881 173.865 39.1184C174.756 38.7271 175.735 38.5314 176.8 38.5314C178.148 38.5314 179.322 38.8684 180.323 39.5424C181.344 40.1947 182.008 41.0645 182.312 42.1516L181.986 42.967V40.6513C181.986 39.9773 182.16 39.4663 182.508 39.1184C182.877 38.7705 183.377 38.5966 184.008 38.5966C184.66 38.5966 185.16 38.7705 185.508 39.1184C185.856 39.4663 186.03 39.9773 186.03 40.6513V53.208C186.03 55.7955 185.345 57.7415 183.975 59.0461C182.606 60.3507 180.616 61.003 178.007 61.003ZM177.909 51.3164C178.757 51.3164 179.485 51.1207 180.094 50.7293C180.703 50.3379 181.171 49.7835 181.497 49.0659C181.845 48.3267 182.019 47.457 182.019 46.4568C182.019 44.9565 181.649 43.7824 180.91 42.9344C180.17 42.0646 179.17 41.6298 177.909 41.6298C177.061 41.6298 176.333 41.8255 175.724 42.2168C175.115 42.6082 174.637 43.1627 174.289 43.8802C173.963 44.5977 173.8 45.4566 173.8 46.4568C173.8 47.957 174.169 49.1421 174.908 50.0118C175.648 50.8815 176.648 51.3164 177.909 51.3164Z" fill="white"/>
<path d="M195.505 55.1323C194.353 55.1323 193.32 54.9149 192.407 54.48C191.515 54.0234 190.809 53.4146 190.287 52.6536C189.787 51.8926 189.537 51.0337 189.537 50.077C189.537 48.9029 189.841 47.9788 190.45 47.3047C191.059 46.609 192.048 46.1089 193.418 45.8045C194.788 45.5001 196.625 45.3479 198.93 45.3479H200.561V47.6961H198.962C197.614 47.6961 196.538 47.7614 195.734 47.8918C194.929 48.0223 194.353 48.2506 194.005 48.5767C193.679 48.8811 193.516 49.316 193.516 49.8813C193.516 50.5988 193.766 51.1859 194.266 51.6425C194.766 52.0991 195.462 52.3274 196.353 52.3274C197.071 52.3274 197.701 52.1644 198.245 51.8382C198.81 51.4903 199.256 51.0228 199.582 50.4358C199.908 49.8487 200.071 49.1747 200.071 48.4137V44.663C200.071 43.5758 199.832 42.793 199.354 42.3147C198.875 41.8363 198.071 41.5972 196.94 41.5972C196.31 41.5972 195.625 41.6733 194.886 41.8255C194.168 41.9777 193.407 42.2386 192.603 42.6082C192.189 42.8039 191.82 42.8583 191.494 42.7713C191.189 42.6843 190.95 42.5104 190.776 42.2495C190.602 41.9668 190.515 41.6624 190.515 41.3362C190.515 41.0101 190.602 40.6948 190.776 40.3904C190.95 40.0643 191.244 39.8251 191.657 39.6729C192.657 39.2598 193.614 38.9662 194.527 38.7923C195.462 38.6183 196.31 38.5314 197.071 38.5314C198.636 38.5314 199.919 38.7705 200.919 39.2489C201.941 39.7272 202.702 40.4556 203.202 41.4341C203.702 42.3908 203.952 43.6301 203.952 45.1522V52.9797C203.952 53.6538 203.789 54.1756 203.463 54.5452C203.137 54.8931 202.67 55.0671 202.061 55.0671C201.452 55.0671 200.974 54.8931 200.626 54.5452C200.3 54.1756 200.137 53.6538 200.137 52.9797V51.4142H200.397C200.245 52.1752 199.941 52.8384 199.484 53.4037C199.049 53.9473 198.495 54.3713 197.821 54.6757C197.147 54.9801 196.375 55.1323 195.505 55.1323Z" fill="white"/>
<path d="M210.178 55.0671C209.526 55.0671 209.025 54.8931 208.678 54.5452C208.33 54.1756 208.156 53.6538 208.156 52.9797V40.6513C208.156 39.9773 208.33 39.4663 208.678 39.1184C209.025 38.7705 209.515 38.5966 210.145 38.5966C210.776 38.5966 211.265 38.7705 211.613 39.1184C211.961 39.4663 212.135 39.9773 212.135 40.6513V43.0322L211.776 42.0538C212.211 40.9666 212.885 40.1078 213.798 39.4772C214.711 38.8466 215.798 38.5314 217.06 38.5314C218.342 38.5314 219.397 38.8358 220.223 39.4446C221.049 40.0534 221.626 40.9884 221.952 42.2495H221.495C221.93 41.0971 222.648 40.1947 223.648 39.5424C224.648 38.8684 225.8 38.5314 227.105 38.5314C228.323 38.5314 229.323 38.7705 230.105 39.2489C230.91 39.7272 231.508 40.4556 231.899 41.4341C232.291 42.3908 232.486 43.6084 232.486 45.0869V52.9797C232.486 53.6538 232.302 54.1756 231.932 54.5452C231.584 54.8931 231.084 55.0671 230.432 55.0671C229.779 55.0671 229.279 54.8931 228.931 54.5452C228.583 54.1756 228.41 53.6538 228.41 52.9797V45.25C228.41 44.0324 228.203 43.1409 227.79 42.5756C227.398 42.0103 226.724 41.7276 225.768 41.7276C224.702 41.7276 223.865 42.1081 223.256 42.8691C222.648 43.6084 222.343 44.6412 222.343 45.9675V52.9797C222.343 53.6538 222.169 54.1756 221.821 54.5452C221.473 54.8931 220.973 55.0671 220.321 55.0671C219.669 55.0671 219.158 54.8931 218.788 54.5452C218.44 54.1756 218.266 53.6538 218.266 52.9797V45.25C218.266 44.0324 218.06 43.1409 217.647 42.5756C217.255 42.0103 216.592 41.7276 215.657 41.7276C214.592 41.7276 213.755 42.1081 213.146 42.8691C212.537 43.6084 212.233 44.6412 212.233 45.9675V52.9797C212.233 54.3713 211.548 55.0671 210.178 55.0671Z" fill="white"/>
<path d="M244.552 55.1323C242.748 55.1323 241.193 54.7953 239.888 54.1212C238.584 53.4472 237.573 52.4905 236.855 51.2511C236.159 50.0118 235.812 48.5441 235.812 46.8481C235.812 45.1957 236.149 43.7497 236.823 42.5104C237.518 41.271 238.464 40.3034 239.66 39.6077C240.878 38.8901 242.258 38.5314 243.802 38.5314C244.933 38.5314 245.944 38.7162 246.835 39.0858C247.749 39.4555 248.52 39.9882 249.151 40.6839C249.803 41.3797 250.292 42.2277 250.619 43.2279C250.967 44.2063 251.14 45.3152 251.14 46.5546C251.14 46.946 250.999 47.2504 250.716 47.4678C250.456 47.6635 250.075 47.7614 249.575 47.7614H239.106V45.4131H248.27L247.749 45.9023C247.749 44.9021 247.596 44.065 247.292 43.391C247.009 42.7169 246.585 42.206 246.02 41.8581C245.476 41.4884 244.791 41.3036 243.965 41.3036C243.052 41.3036 242.269 41.5211 241.617 41.9559C240.986 42.369 240.497 42.967 240.149 43.7497C239.823 44.5107 239.66 45.424 239.66 46.4894V46.7177C239.66 48.5006 240.073 49.8378 240.899 50.7293C241.747 51.599 242.987 52.0339 244.618 52.0339C245.183 52.0339 245.813 51.9687 246.509 51.8382C247.227 51.686 247.901 51.436 248.531 51.0881C248.988 50.8271 249.39 50.7184 249.738 50.7619C250.086 50.7837 250.358 50.9032 250.553 51.1207C250.771 51.3381 250.901 51.6099 250.945 51.9361C250.988 52.2405 250.923 52.5557 250.749 52.8819C250.597 53.208 250.325 53.4907 249.934 53.7299C249.173 54.2082 248.292 54.567 247.292 54.8062C246.313 55.0236 245.4 55.1323 244.552 55.1323Z" fill="white"/>
<path d="M256.456 55.0671C255.782 55.0671 255.261 54.8931 254.891 54.5452C254.543 54.1756 254.369 53.6538 254.369 52.9797V40.6513C254.369 39.9773 254.543 39.4663 254.891 39.1184C255.239 38.7705 255.728 38.5966 256.359 38.5966C256.989 38.5966 257.478 38.7705 257.826 39.1184C258.174 39.4663 258.348 39.9773 258.348 40.6513V42.7061H258.022C258.326 41.4015 258.924 40.4122 259.816 39.7381C260.707 39.0641 261.892 38.6618 263.371 38.5314C263.827 38.4879 264.186 38.6075 264.447 38.8901C264.73 39.1511 264.893 39.5642 264.936 40.1295C264.98 40.6731 264.849 41.1188 264.545 41.4667C264.262 41.7929 263.827 41.9885 263.24 42.0538L262.523 42.119C261.196 42.2495 260.196 42.6626 259.522 43.3584C258.848 44.0324 258.511 44.9891 258.511 46.2285V52.9797C258.511 53.6538 258.337 54.1756 257.989 54.5452C257.641 54.8931 257.13 55.0671 256.456 55.0671Z" fill="white"/>
<path d="M282.127 55.1323C280.736 55.1323 279.507 54.7953 278.442 54.1212C277.398 53.4472 276.583 52.4905 275.995 51.2511C275.408 49.99 275.115 48.5115 275.115 46.8155C275.115 45.0978 275.408 43.6301 275.995 42.4125C276.583 41.1732 277.398 40.2165 278.442 39.5424C279.507 38.8684 280.736 38.5314 282.127 38.5314C283.453 38.5314 284.606 38.8575 285.584 39.5098C286.584 40.1621 287.258 41.021 287.606 42.0864H287.248V33.6065C287.248 32.9325 287.422 32.4215 287.769 32.0736C288.117 31.7257 288.617 31.5518 289.27 31.5518C289.922 31.5518 290.422 31.7257 290.77 32.0736C291.14 32.4215 291.324 32.9325 291.324 33.6065V52.9797C291.324 53.6538 291.151 54.1756 290.803 54.5452C290.455 54.8931 289.955 55.0671 289.302 55.0671C288.65 55.0671 288.15 54.8931 287.802 54.5452C287.454 54.1756 287.28 53.6538 287.28 52.9797V50.4358L287.639 51.4142C287.313 52.5449 286.65 53.4472 285.649 54.1212C284.649 54.7953 283.475 55.1323 282.127 55.1323ZM283.269 52.0339C284.073 52.0339 284.78 51.8382 285.389 51.4468C285.997 51.0555 286.465 50.4793 286.791 49.7182C287.139 48.9355 287.313 47.9679 287.313 46.8155C287.313 45.0761 286.943 43.7824 286.204 42.9344C285.465 42.0646 284.486 41.6298 283.269 41.6298C282.464 41.6298 281.757 41.8255 281.149 42.2168C280.54 42.5865 280.061 43.1627 279.714 43.9454C279.387 44.7064 279.224 45.6631 279.224 46.8155C279.224 48.5332 279.594 49.8378 280.333 50.7293C281.073 51.599 282.051 52.0339 283.269 52.0339Z" fill="white"/>
<path d="M303.412 55.1323C301.607 55.1323 300.052 54.7953 298.748 54.1212C297.443 53.4472 296.432 52.4905 295.715 51.2511C295.019 50.0118 294.671 48.5441 294.671 46.8481C294.671 45.1957 295.008 43.7497 295.682 42.5104C296.378 41.271 297.324 40.3034 298.52 39.6077C299.737 38.8901 301.118 38.5314 302.662 38.5314C303.792 38.5314 304.803 38.7162 305.695 39.0858C306.608 39.4555 307.38 39.9882 308.01 40.6839C308.663 41.3797 309.152 42.2277 309.478 43.2279C309.826 44.2063 310 45.3152 310 46.5546C310 46.946 309.859 47.2504 309.576 47.4678C309.315 47.6635 308.935 47.7614 308.434 47.7614H297.965V45.4131H307.13L306.608 45.9023C306.608 44.9021 306.456 44.065 306.151 43.391C305.869 42.7169 305.445 42.206 304.879 41.8581C304.336 41.4884 303.651 41.3036 302.825 41.3036C301.912 41.3036 301.129 41.5211 300.476 41.9559C299.846 42.369 299.357 42.967 299.009 43.7497C298.683 44.5107 298.52 45.424 298.52 46.4894V46.7177C298.52 48.5006 298.933 49.8378 299.759 50.7293C300.607 51.599 301.846 52.0339 303.477 52.0339C304.042 52.0339 304.673 51.9687 305.369 51.8382C306.086 51.686 306.76 51.436 307.391 51.0881C307.847 50.8271 308.25 50.7184 308.598 50.7619C308.945 50.7837 309.217 50.9032 309.413 51.1207C309.63 51.3381 309.761 51.6099 309.804 51.9361C309.848 52.2405 309.783 52.5557 309.609 52.8819C309.456 53.208 309.185 53.4907 308.793 53.7299C308.032 54.2082 307.152 54.567 306.151 54.8062C305.173 55.0236 304.26 55.1323 303.412 55.1323Z" fill="white"/>
<path d="M178.887 83.5351C177.931 83.5351 176.974 83.459 176.017 83.3068C175.061 83.1763 174.158 82.9698 173.31 82.6871C172.462 82.3827 171.701 82.0131 171.027 81.5782C170.636 81.3173 170.364 81.002 170.212 80.6324C170.06 80.2627 170.005 79.904 170.049 79.5561C170.114 79.1864 170.255 78.8712 170.473 78.6103C170.712 78.3276 171.006 78.1536 171.353 78.0884C171.701 78.0232 172.082 78.121 172.495 78.3819C173.452 78.9473 174.463 79.3604 175.528 79.6213C176.594 79.8822 177.713 80.0127 178.887 80.0127C180.605 80.0127 181.855 79.73 182.638 79.1647C183.421 78.5776 183.812 77.8275 183.812 76.9143C183.812 76.1533 183.53 75.5553 182.964 75.1205C182.421 74.6856 181.475 74.3268 180.127 74.0442L176.539 73.294C174.474 72.8592 172.93 72.1308 171.908 71.1088C170.908 70.0652 170.408 68.6953 170.408 66.9994C170.408 65.934 170.625 64.9664 171.06 64.0967C171.495 63.2269 172.104 62.4768 172.886 61.8462C173.691 61.2157 174.637 60.7373 175.724 60.4112C176.833 60.0633 178.05 59.8894 179.377 59.8894C180.681 59.8894 181.921 60.0524 183.095 60.3786C184.269 60.7047 185.323 61.1831 186.258 61.8136C186.606 62.0528 186.835 62.3463 186.943 62.6942C187.074 63.0421 187.106 63.39 187.041 63.7379C186.976 64.064 186.824 64.3467 186.585 64.5859C186.345 64.8251 186.041 64.9664 185.671 65.0099C185.323 65.0534 184.921 64.9446 184.465 64.6837C183.66 64.2271 182.845 63.901 182.019 63.7053C181.192 63.5096 180.301 63.4118 179.344 63.4118C178.344 63.4118 177.485 63.5531 176.768 63.8357C176.05 64.1184 175.496 64.5207 175.104 65.0425C174.735 65.5426 174.55 66.1405 174.55 66.8363C174.55 67.6191 174.811 68.2496 175.332 68.728C175.854 69.1846 176.746 69.5433 178.007 69.8043L181.562 70.5544C183.714 71.011 185.313 71.7285 186.356 72.707C187.422 73.6854 187.954 74.99 187.954 76.6207C187.954 77.6644 187.737 78.6102 187.302 79.4582C186.889 80.3062 186.28 81.0346 185.476 81.6434C184.693 82.2522 183.747 82.7197 182.638 83.0459C181.529 83.372 180.279 83.5351 178.887 83.5351Z" fill="white"/>
<path d="M196.919 83.5351C195.593 83.5351 194.495 83.2959 193.625 82.8176C192.755 82.3175 192.103 81.5782 191.668 80.5998C191.255 79.6213 191.048 78.4037 191.048 76.9469V69.0541C191.048 68.3583 191.222 67.8474 191.57 67.5212C191.918 67.1733 192.418 66.9994 193.07 66.9994C193.723 66.9994 194.223 67.1733 194.571 67.5212C194.94 67.8474 195.125 68.3583 195.125 69.0541V77.0121C195.125 78.1428 195.353 78.9799 195.81 79.5235C196.267 80.067 196.995 80.3388 197.995 80.3388C199.082 80.3388 199.974 79.9692 200.67 79.2299C201.365 78.4689 201.713 77.4687 201.713 76.2294V69.0541C201.713 68.3583 201.887 67.8474 202.235 67.5212C202.583 67.1733 203.083 66.9994 203.735 66.9994C204.388 66.9994 204.888 67.1733 205.236 67.5212C205.605 67.8474 205.79 68.3583 205.79 69.0541V81.3825C205.79 82.7741 205.127 83.4699 203.801 83.4699C203.17 83.4699 202.681 83.2959 202.333 82.948C201.985 82.5784 201.811 82.0565 201.811 81.3825V78.9038L202.268 79.8822C201.811 81.0564 201.115 81.9587 200.18 82.5893C199.267 83.2198 198.18 83.5351 196.919 83.5351Z" fill="white"/>
<path d="M217.404 83.5351C215.73 83.5351 214.273 83.1981 213.034 82.524C211.795 81.8282 210.838 80.8498 210.164 79.5887C209.49 78.3276 209.153 76.849 209.153 75.1531C209.153 73.8702 209.338 72.7287 209.707 71.7285C210.099 70.7066 210.653 69.8477 211.371 69.152C212.088 68.4344 212.958 67.8909 213.98 67.5212C215.002 67.1298 216.143 66.9342 217.404 66.9342C218.122 66.9342 218.894 67.032 219.72 67.2277C220.568 67.4234 221.362 67.7495 222.101 68.2061C222.449 68.4236 222.677 68.6845 222.786 68.9889C222.894 69.2933 222.916 69.6086 222.851 69.9347C222.786 70.2391 222.644 70.5109 222.427 70.7501C222.231 70.9675 221.981 71.1088 221.677 71.1741C221.372 71.2176 221.035 71.1415 220.666 70.9458C220.187 70.6631 219.698 70.4566 219.198 70.3261C218.698 70.1739 218.22 70.0978 217.763 70.0978C217.046 70.0978 216.415 70.2174 215.871 70.4565C215.328 70.674 214.86 71.0001 214.469 71.435C214.099 71.8481 213.817 72.3699 213.621 73.0005C213.425 73.6311 213.327 74.3595 213.327 75.1857C213.327 76.7947 213.708 78.0667 214.469 79.0016C215.252 79.9148 216.35 80.3714 217.763 80.3714C218.22 80.3714 218.687 80.3062 219.165 80.1758C219.666 80.0453 220.166 79.8387 220.666 79.5561C221.035 79.3604 221.362 79.2952 221.644 79.3604C221.949 79.4256 222.199 79.5778 222.394 79.817C222.59 80.0344 222.71 80.3062 222.753 80.6324C222.797 80.9368 222.753 81.2412 222.623 81.5456C222.514 81.85 222.297 82.1 221.97 82.2957C221.253 82.7306 220.492 83.0459 219.687 83.2415C218.883 83.4372 218.122 83.5351 217.404 83.5351Z" fill="white"/>
<path d="M232.959 83.5351C231.154 83.5351 229.599 83.1981 228.295 82.524C226.99 81.85 225.979 80.8933 225.262 79.6539C224.566 78.4146 224.218 76.9469 224.218 75.2509C224.218 73.5984 224.555 72.1525 225.229 70.9132C225.925 69.6738 226.871 68.7062 228.067 68.0104C229.284 67.2929 230.665 66.9342 232.209 66.9342C233.339 66.9342 234.35 67.119 235.242 67.4886C236.155 67.8582 236.927 68.3909 237.557 69.0867C238.21 69.7825 238.699 70.6305 239.025 71.6307C239.373 72.6091 239.547 73.718 239.547 74.9574C239.547 75.3488 239.406 75.6532 239.123 75.8706C238.862 76.0663 238.482 76.1641 237.981 76.1641H227.512V73.8159H236.677L236.155 74.3051C236.155 73.3049 236.003 72.4678 235.698 71.7938C235.416 71.1197 234.992 70.6087 234.426 70.2609C233.883 69.8912 233.198 69.7064 232.372 69.7064C231.458 69.7064 230.676 69.9238 230.023 70.3587C229.393 70.7718 228.904 71.3698 228.556 72.1525C228.23 72.9135 228.067 73.8267 228.067 74.8922V75.1205C228.067 76.9034 228.48 78.2406 229.306 79.1321C230.154 80.0018 231.393 80.4367 233.024 80.4367C233.589 80.4367 234.22 80.3714 234.916 80.241C235.633 80.0888 236.307 79.8387 236.938 79.4908C237.394 79.2299 237.797 79.1212 238.145 79.1647C238.492 79.1864 238.764 79.306 238.96 79.5235C239.177 79.7409 239.308 80.0127 239.351 80.3388C239.395 80.6432 239.33 80.9585 239.156 81.2847C239.003 81.6108 238.732 81.8935 238.34 82.1326C237.579 82.611 236.699 82.9698 235.698 83.2089C234.72 83.4264 233.807 83.5351 232.959 83.5351Z" fill="white"/>
<path d="M248.614 83.5351C247.679 83.5351 246.689 83.4372 245.646 83.2415C244.602 83.0459 243.667 82.7088 242.841 82.2305C242.493 82.0131 242.243 81.763 242.091 81.4803C241.96 81.1759 241.906 80.8824 241.928 80.5998C241.971 80.2953 242.08 80.0344 242.254 79.817C242.449 79.5996 242.689 79.4582 242.971 79.393C243.276 79.3278 243.602 79.3821 243.95 79.5561C244.819 79.9692 245.635 80.2627 246.396 80.4367C247.157 80.5889 247.907 80.665 248.646 80.665C249.69 80.665 250.462 80.491 250.962 80.1431C251.484 79.7735 251.745 79.2952 251.745 78.7081C251.745 78.208 251.571 77.8275 251.223 77.5666C250.897 77.2839 250.397 77.0774 249.722 76.9469L246.461 76.3272C245.113 76.0663 244.08 75.5771 243.363 74.8595C242.667 74.1203 242.319 73.1744 242.319 72.0221C242.319 70.9784 242.602 70.076 243.167 69.315C243.754 68.554 244.558 67.967 245.58 67.5538C246.602 67.1407 247.776 66.9342 249.103 66.9342C250.06 66.9342 250.951 67.0429 251.777 67.2603C252.625 67.456 253.441 67.7713 254.223 68.2061C254.549 68.3801 254.767 68.6084 254.876 68.891C255.006 69.1737 255.039 69.4672 254.973 69.7716C254.908 70.0543 254.778 70.3152 254.582 70.5544C254.386 70.7718 254.136 70.9132 253.832 70.9784C253.549 71.0219 253.223 70.9566 252.854 70.7827C252.179 70.4348 251.527 70.1848 250.897 70.0326C250.288 69.8804 249.701 69.8043 249.135 69.8043C248.07 69.8043 247.276 69.9891 246.755 70.3587C246.254 70.7283 246.004 71.2176 246.004 71.8264C246.004 72.283 246.157 72.6635 246.461 72.9679C246.765 73.2723 247.233 73.4789 247.863 73.5876L251.125 74.2072C252.538 74.4682 253.604 74.9465 254.321 75.6423C255.06 76.3381 255.43 77.273 255.43 78.4472C255.43 80.0344 254.81 81.2847 253.571 82.1979C252.332 83.0893 250.679 83.5351 248.614 83.5351Z" fill="white"/>
<path d="M264.539 83.5351C263.604 83.5351 262.615 83.4372 261.571 83.2415C260.527 83.0459 259.592 82.7088 258.766 82.2305C258.418 82.0131 258.168 81.763 258.016 81.4803C257.885 81.1759 257.831 80.8824 257.853 80.5998C257.896 80.2953 258.005 80.0344 258.179 79.817C258.375 79.5996 258.614 79.4582 258.896 79.393C259.201 79.3278 259.527 79.3821 259.875 79.5561C260.745 79.9692 261.56 80.2627 262.321 80.4367C263.082 80.5889 263.832 80.665 264.571 80.665C265.615 80.665 266.387 80.491 266.887 80.1431C267.409 79.7735 267.67 79.2952 267.67 78.7081C267.67 78.208 267.496 77.8275 267.148 77.5666C266.822 77.2839 266.322 77.0774 265.648 76.9469L262.386 76.3272C261.038 76.0663 260.005 75.5771 259.288 74.8595C258.592 74.1203 258.244 73.1744 258.244 72.0221C258.244 70.9784 258.527 70.076 259.092 69.315C259.679 68.554 260.484 67.967 261.506 67.5538C262.528 67.1407 263.702 66.9342 265.028 66.9342C265.985 66.9342 266.876 67.0429 267.702 67.2603C268.55 67.456 269.366 67.7713 270.149 68.2061C270.475 68.3801 270.692 68.6084 270.801 68.891C270.931 69.1737 270.964 69.4672 270.899 69.7716C270.833 70.0543 270.703 70.3152 270.507 70.5544C270.312 70.7718 270.062 70.9132 269.757 70.9784C269.474 71.0219 269.148 70.9566 268.779 70.7827C268.105 70.4348 267.452 70.1848 266.822 70.0326C266.213 69.8804 265.626 69.8043 265.061 69.8043C263.995 69.8043 263.202 69.9891 262.68 70.3587C262.18 70.7283 261.93 71.2176 261.93 71.8264C261.93 72.283 262.082 72.6635 262.386 72.9679C262.691 73.2723 263.158 73.4789 263.789 73.5876L267.05 74.2072C268.463 74.4682 269.529 74.9465 270.246 75.6423C270.986 76.3381 271.355 77.273 271.355 78.4472C271.355 80.0344 270.736 81.2847 269.496 82.1979C268.257 83.0893 266.604 83.5351 264.539 83.5351Z" fill="white"/>
<path d="M281.899 83.5351C280.247 83.5351 278.812 83.1981 277.594 82.524C276.376 81.85 275.43 80.8933 274.756 79.6539C274.082 78.3928 273.745 76.9143 273.745 75.2183C273.745 73.9355 273.93 72.7939 274.3 71.7938C274.691 70.7718 275.246 69.9021 275.963 69.1846C276.681 68.4453 277.54 67.8909 278.54 67.5212C279.54 67.1298 280.66 66.9342 281.899 66.9342C283.552 66.9342 284.987 67.2712 286.204 67.9452C287.422 68.6192 288.368 69.576 289.042 70.8153C289.716 72.0547 290.053 73.5223 290.053 75.2183C290.053 76.5012 289.857 77.6535 289.466 78.6755C289.096 79.6974 288.552 80.578 287.835 81.3173C287.117 82.0348 286.259 82.5893 285.258 82.9806C284.258 83.3503 283.138 83.5351 281.899 83.5351ZM281.899 80.4367C282.704 80.4367 283.41 80.241 284.019 79.8496C284.628 79.4582 285.095 78.882 285.421 78.121C285.769 77.3383 285.943 76.3707 285.943 75.2183C285.943 73.4789 285.574 72.1851 284.834 71.3371C284.095 70.4674 283.117 70.0326 281.899 70.0326C281.095 70.0326 280.388 70.2282 279.779 70.6196C279.17 70.9893 278.692 71.5654 278.344 72.3482C278.018 73.1092 277.855 74.0659 277.855 75.2183C277.855 76.936 278.224 78.2406 278.964 79.1321C279.703 80.0018 280.681 80.4367 281.899 80.4367Z" fill="white"/>
<defs>
<linearGradient id="paint0_linear_11_19" x1="0" y1="50.1716" x2="153.541" y2="50.1716" gradientUnits="userSpaceOnUse">
<stop stop-color="#FF0766"/>
<stop offset="0.328125" stop-color="#FF3A61"/>
<stop offset="0.671875" stop-color="#FD765E"/>
<stop offset="1" stop-color="#FF0766"/>
</linearGradient>
</defs>
</svg>
